<?xml version="1.0" encoding="UTF-8"?>
<svg width="100px" height="100px" viewBox="0 0 100 100" version="1.1" xmlns="http://www.w3.org/2000/svg" xmlns:xlink="http://www.w3.org/1999/xlink">
    <!-- Generator: Sketch 51.2 (57519) - http://www.bohemiancoding.com/sketch -->
    <title>castle</title>
    <desc>Created with Sketch.</desc>
    <defs></defs>
    <g id="castle" stroke="none" stroke-width="1" fill="none" fill-rule="evenodd">
        <g id="Group" fill="#D8D8D8" fill-rule="nonzero">
            <path d="M100,100 L0,100 C2.89515083,99.0972839 4.95357007,99 7.21649485,94 C9.47941962,89 9.47941962,86.2360494 11,80 L88,80 C89.3745704,87.1111111 90.3780069,91.7777778 91.7525773,94 C93.1271478,96.2222222 95.8762887,98.2222222 100,100 Z" id="Polygon-2"></path>
            <path d="M59.2571429,57.9696907 L48.9714286,40.9983162 L38.6857143,57.9696907 L12,57.9696907 C13.8940499,57.5434028 17.9511928,55.8795425 20.1714286,52.97811 C22.3916643,50.0766774 24.9181136,45.7506408 27.7507764,40 L72.2492236,40 C75.0713566,46.4024244 77.5978059,51.0612331 79.8285714,53.9764261 C82.059337,56.8916191 86.1164799,58.2227073 88,57.9696907 L59.2571429,57.9696907 Z" id="Combined-Shape"></path>
            <path d="M75,21 L24,21 C26.5925818,20.8857905 28.7175818,19.5524571 30.375,17 C32.0324182,14.4475429 33.1541293,10.7808762 33.7401333,6 L65.2598667,6 C65.8829407,10.8379648 67.0046518,14.5046314 68.625,17 C70.2453482,19.4953686 72.3703482,20.8287019 75,21 Z" id="Polygon-2-Copy-2"></path>
            <polygon id="Rectangle-3" points="37 28 42 28 42 33 37 33"></polygon>
            <polygon id="Rectangle-3-Copy-2" points="47 52 52 52 52 57 47 57"></polygon>
            <polygon id="Rectangle-3-Copy-3" points="23 68 28 68 28 73 23 73"></polygon>
            <polygon id="Rectangle-3-Copy-4" points="47 68 52 68 52 73 47 73"></polygon>
            <polygon id="Rectangle-3-Copy-5" points="70 68 75 68 75 73 70 73"></polygon>
            <polygon id="Rectangle-3-Copy" points="58 28 63 28 63 33 58 33"></polygon>
            <path d="M34.472136,0 C34.2762131,1.43570094 34.2762131,2.6023676 34.472136,3.5 C34.6680588,4.3976324 35.1773469,5.56429906 36,7 L32,5.80425725 L32,2.67376208 L34.472136,0 Z" id="Polygon-3"></path>
            <polygon id="Triangle-2" points="49 35 52 40 46 40"></polygon>
            <path d="M64.527864,0 L67,2.67376208 L67,5.80425725 L63,7 C63.8226531,5.56429906 64.3319412,4.3976324 64.527864,3.5 C64.7237869,2.6023676 64.7237869,1.43570094 64.527864,0 Z" id="Polygon-3-Copy"></path>
        </g>
    </g>
</svg>